<svg width="62" height="44" viewBox="0 0 62 44" fill="none" xmlns="http://www.w3.org/2000/svg">
<path d="M57.9301 15.88H44.6301C44.6301 13.92 43.0401 12.34 41.0801 12.34C39.1201 12.34 37.5301 13.93 37.5301 15.88H32.8201V6.09001C32.8201 5.36001 33.4101 4.77001 34.1401 4.77001H35.6401C36.3701 4.77001 36.9601 5.36001 36.9601 6.09001V6.76001C36.9601 6.76001 36.9901 6.84001 37.0401 6.84001H41.0201C41.0201 6.84001 41.1001 6.81001 41.1001 6.76001V4.77001C41.1001 2.49001 39.2501 0.640015 36.9701 0.640015H32.8401C30.5601 0.640015 28.7101 2.49001 28.7101 4.77001V15.87H24.8401C24.7201 14.02 23.1901 12.56 21.3101 12.56C19.4301 12.56 17.9101 14.02 17.7801 15.87H4.18008C2.33008 15.87 0.830078 17.37 0.830078 19.22V20.25C0.830078 21.5 1.53008 22.58 2.55008 23.16C2.70008 30.33 4.33008 35.42 7.56008 38.64C12.5301 43.59 20.2301 43.57 29.1701 43.55H32.9501C33.5701 43.55 34.1901 43.55 34.8101 43.55C42.9501 43.55 49.9401 43.25 54.5601 38.64C57.7901 35.42 59.4201 30.33 59.5701 23.16C60.5901 22.58 61.2901 21.5 61.2901 20.25V19.22C61.2901 17.37 59.7901 15.87 57.9401 15.87L57.9301 15.88ZM3.83008 19.23C3.83008 19.04 3.99008 18.88 4.18008 18.88H57.9301C58.1201 18.88 58.2801 19.04 58.2801 19.23V20.26C58.2801 20.45 58.1201 20.61 57.9301 20.61H4.18008C3.99008 20.61 3.83008 20.45 3.83008 20.26V19.23ZM52.4401 36.52C48.3601 40.59 41.2201 40.58 32.9601 40.55H29.1601C20.9001 40.57 13.7601 40.59 9.68008 36.52C7.09008 33.94 5.73008 29.7 5.55008 23.61H56.5701C56.3801 29.71 55.0301 33.94 52.4401 36.52Z" fill="url(#paint0_linear_1656_291)"/>
<defs>
<linearGradient id="paint0_linear_1656_291" x1="0.830078" y1="22.1916" x2="61.2901" y2="22.1916" gradientUnits="userSpaceOnUse">
<stop stop-color="#F75609"/>
<stop offset="1" stop-color="#FF9E44"/>
</linearGradient>
</defs>
</svg>
