<svg width="37" height="57" viewBox="0 0 37 57" fill="none" xmlns="http://www.w3.org/2000/svg">
<path d="M29.5 0H7.5C3.36 0 0 3.36 0 7.5V49.5C0 53.64 3.36 57 7.5 57H29.5C33.64 57 37 53.64 37 49.5V7.5C37 3.36 33.64 0 29.5 0ZM7.5 3H29.5C31.98 3 34 5.02 34 7.5V41H3V7.5C3 5.02 5.02 3 7.5 3ZM29.5 54H7.5C5.02 54 3 51.98 3 49.5V44H34V49.5C34 51.98 31.98 54 29.5 54Z" fill="url(#paint0_linear_1656_290)"/>
<path d="M20.5 47H17.5C16.67 47 16 47.67 16 48.5C16 49.33 16.67 50 17.5 50H20.5C21.33 50 22 49.33 22 48.5C22 47.67 21.33 47 20.5 47Z" fill="url(#paint1_linear_1656_290)"/>
<defs>
<linearGradient id="paint0_linear_1656_290" x1="0" y1="28.6267" x2="37" y2="28.6267" gradientUnits="userSpaceOnUse">
<stop stop-color="#F75609"/>
<stop offset="1" stop-color="#FF9E44"/>
</linearGradient>
<linearGradient id="paint1_linear_1656_290" x1="0" y1="28.6267" x2="37" y2="28.6267" gradientUnits="userSpaceOnUse">
<stop stop-color="#F75609"/>
<stop offset="1" stop-color="#FF9E44"/>
</linearGradient>
</defs>
</svg>
