<svg width="38" height="57" viewBox="0 0 38 57" fill="none" xmlns="http://www.w3.org/2000/svg">
<path d="M29.9902 0H7.99023C3.85023 0 0.490234 3.36 0.490234 7.5V49.5C0.490234 53.64 3.85023 57 7.99023 57H29.9902C34.1302 57 37.4902 53.64 37.4902 49.5V7.5C37.4902 3.36 34.1302 0 29.9902 0ZM7.99023 3H29.9902C32.4702 3 34.4902 5.02 34.4902 7.5V41H3.49023V7.5C3.49023 5.02 5.51023 3 7.99023 3ZM29.9902 54H7.99023C5.51023 54 3.49023 51.98 3.49023 49.5V44H34.4902V49.5C34.4902 51.98 32.4702 54 29.9902 54Z" fill="url(#paint0_linear_1656_289)"/>
<path d="M20.9902 47H17.9902C17.1602 47 16.4902 47.67 16.4902 48.5C16.4902 49.33 17.1602 50 17.9902 50H20.9902C21.8202 50 22.4902 49.33 22.4902 48.5C22.4902 47.67 21.8202 47 20.9902 47Z" fill="url(#paint1_linear_1656_289)"/>
<path d="M11.9102 32.35C12.3602 32.35 12.8102 32.18 13.1502 31.83L18.6802 26.3L16.2002 23.82L10.6702 29.35C9.99023 30.04 9.99023 31.15 10.6702 31.83C11.0102 32.18 11.4602 32.35 11.9102 32.35Z" fill="url(#paint2_linear_1656_289)"/>
<path d="M22.3802 22.61C22.7402 22.25 23.2402 22.06 23.7502 22.08C24.7102 22.13 25.6802 21.79 26.4102 21.06C27.2102 20.26 27.5502 19.16 27.4102 18.11C27.3602 17.74 26.9002 17.59 26.6302 17.85L25.3002 19.18C25.0902 19.39 24.7502 19.39 24.5402 19.18L23.3202 17.96C23.1102 17.75 23.1102 17.41 23.3202 17.19L24.6502 15.86C24.9202 15.59 24.7602 15.14 24.3902 15.08C23.3502 14.94 22.2502 15.28 21.4402 16.08C20.7102 16.81 20.3702 17.79 20.4202 18.74C20.4502 19.25 20.2602 19.75 19.8902 20.11L19.3402 20.67L21.8202 23.15L22.3702 22.59L22.3802 22.61Z" fill="url(#paint3_linear_1656_289)"/>
<path d="M12.7902 19.94C12.8302 20.01 12.9102 20.03 13.0102 20.03C13.2002 20.03 13.4502 19.92 13.5602 19.81L13.6302 19.74L20.9802 27.09C21.0802 27.19 21.0802 27.35 20.9802 27.44L20.0602 28.36C20.0002 28.42 20.0002 28.52 20.0602 28.58L21.4402 29.95C21.4902 30 21.5602 30.03 21.6402 30.03C21.7102 30.03 21.7802 30 21.8402 29.95L22.4502 29.35L24.9002 31.8C25.0202 31.92 25.1702 32.03 25.3102 32.1C25.8102 32.36 26.4002 32.36 26.9002 32.1C27.0502 32.02 27.1902 31.92 27.3102 31.8C27.9802 31.13 27.9802 30.05 27.3102 29.39L24.8602 26.94L25.4602 26.34C25.5702 26.23 25.5702 26.05 25.4602 25.94L24.0602 24.54C24.0602 24.54 24.0102 24.5 23.9702 24.5C23.9302 24.5 23.9002 24.51 23.8802 24.54L22.9302 25.48C22.9302 25.48 22.8802 25.52 22.8502 25.53C22.7902 25.56 22.7302 25.56 22.6702 25.53C22.6402 25.52 22.6202 25.5 22.5902 25.48L15.2402 18.13L15.3202 18.05C15.4902 17.88 15.6402 17.42 15.4402 17.29L13.0702 15.88C13.0102 15.84 12.9402 15.81 12.8702 15.81C12.7802 15.81 12.6902 15.85 12.6302 15.91L11.4302 17.1C11.3102 17.22 11.3002 17.41 11.4002 17.55L12.7902 19.93V19.94Z" fill="url(#paint4_linear_1656_289)"/>
<defs>
<linearGradient id="paint0_linear_1656_289" x1="0.490234" y1="28.6267" x2="37.4902" y2="28.6267" gradientUnits="userSpaceOnUse">
<stop stop-color="#F75609"/>
<stop offset="1" stop-color="#FF9E44"/>
</linearGradient>
<linearGradient id="paint1_linear_1656_289" x1="0.490234" y1="28.6267" x2="37.4902" y2="28.6267" gradientUnits="userSpaceOnUse">
<stop stop-color="#F75609"/>
<stop offset="1" stop-color="#FF9E44"/>
</linearGradient>
<linearGradient id="paint2_linear_1656_289" x1="0.490234" y1="28.6267" x2="37.4902" y2="28.6267" gradientUnits="userSpaceOnUse">
<stop stop-color="#F75609"/>
<stop offset="1" stop-color="#FF9E44"/>
</linearGradient>
<linearGradient id="paint3_linear_1656_289" x1="0.490234" y1="28.6267" x2="37.4902" y2="28.6267" gradientUnits="userSpaceOnUse">
<stop stop-color="#F75609"/>
<stop offset="1" stop-color="#FF9E44"/>
</linearGradient>
<linearGradient id="paint4_linear_1656_289" x1="0.490234" y1="28.6267" x2="37.4902" y2="28.6267" gradientUnits="userSpaceOnUse">
<stop stop-color="#F75609"/>
<stop offset="1" stop-color="#FF9E44"/>
</linearGradient>
</defs>
</svg>
