<svg width="38" height="58" viewBox="0 0 38 58" fill="none" xmlns="http://www.w3.org/2000/svg">
<path d="M29.5703 0.5H7.57031C3.43031 0.5 0.0703125 3.86 0.0703125 8V50C0.0703125 54.14 3.43031 57.5 7.57031 57.5H29.5703C33.7103 57.5 37.0703 54.14 37.0703 50V8C37.0703 3.86 33.7103 0.5 29.5703 0.5ZM7.57031 3.5H29.5703C32.0503 3.5 34.0703 5.52 34.0703 8V41.5H3.07031V8C3.07031 5.52 5.09031 3.5 7.57031 3.5ZM29.5703 54.5H7.57031C5.09031 54.5 3.07031 52.48 3.07031 50V44.5H34.0703V50C34.0703 52.48 32.0503 54.5 29.5703 54.5Z" fill="url(#paint0_linear_1656_292)"/>
<path d="M20.5703 47.5H17.5703C16.7403 47.5 16.0703 48.17 16.0703 49C16.0703 49.83 16.7403 50.5 17.5703 50.5H20.5703C21.4003 50.5 22.0703 49.83 22.0703 49C22.0703 48.17 21.4003 47.5 20.5703 47.5Z" fill="url(#paint1_linear_1656_292)"/>
<path d="M12.6303 34.32V34.38L13.3403 34.83C14.7903 35.74 16.4703 36.23 18.2003 36.23C18.6303 36.23 19.0603 36.2 19.4803 36.14C20.7503 35.96 21.9603 35.52 23.0503 34.83L23.7603 34.38V34.32C26.0003 32.6 27.3203 29.97 27.3203 27.1C27.3203 23.67 23.4603 18.06 20.2203 13.96C19.6903 13.29 18.9003 12.91 18.0503 12.91H18.0203C17.1603 12.91 16.3603 13.32 15.8403 14.01C12.7503 18.1 9.06031 23.7 9.06031 27.11C9.06031 29.97 10.3803 32.6 12.6203 34.33L12.6303 34.32ZM15.8603 32.75C16.2003 31.89 16.9403 30.57 18.1403 28.89C19.3903 30.56 20.1703 31.9 20.5303 32.76C19.0503 33.36 17.3503 33.35 15.8603 32.76V32.75ZM18.0603 16.05C21.9303 20.99 24.3203 25.21 24.3203 27.1C24.3203 28.52 23.8303 29.86 22.9703 30.93C22.3203 29.6 21.2803 28.01 19.8303 26.17C19.4103 25.64 18.7803 25.35 18.1003 25.34C17.4203 25.34 16.8003 25.66 16.3903 26.2C15.0103 28.02 14.0203 29.59 13.4103 30.91C12.5603 29.84 12.0803 28.52 12.0803 27.1C12.0803 25.21 14.3703 20.99 18.0703 16.05H18.0603Z" fill="url(#paint2_linear_1656_292)"/>
<defs>
<linearGradient id="paint0_linear_1656_292" x1="0.0703125" y1="29.1267" x2="37.0703" y2="29.1267" gradientUnits="userSpaceOnUse">
<stop stop-color="#F75609"/>
<stop offset="1" stop-color="#FF9E44"/>
</linearGradient>
<linearGradient id="paint1_linear_1656_292" x1="0.0703125" y1="29.1267" x2="37.0703" y2="29.1267" gradientUnits="userSpaceOnUse">
<stop stop-color="#F75609"/>
<stop offset="1" stop-color="#FF9E44"/>
</linearGradient>
<linearGradient id="paint2_linear_1656_292" x1="0.0703125" y1="29.1267" x2="37.0703" y2="29.1267" gradientUnits="userSpaceOnUse">
<stop stop-color="#F75609"/>
<stop offset="1" stop-color="#FF9E44"/>
</linearGradient>
</defs>
</svg>
