<svg width="53" height="53" viewBox="0 0 53 53" fill="none" xmlns="http://www.w3.org/2000/svg">
<g clip-path="url(#clip0_1604_57)">
<path d="M47.0703 26.0984C47.0621 24.8663 46.9401 23.6445 46.7351 22.4309C46.5957 21.6068 46.7802 20.8801 47.3573 20.2549C47.9591 19.603 48.529 18.9203 49.1359 18.2725C49.9519 17.4013 50.8243 17.5735 51.2517 18.7082C51.5521 19.5066 51.7151 20.3492 51.876 21.1866C54.2994 33.7336 47.2148 46.2293 35.1922 50.6173C22.121 55.3876 7.51408 48.9773 2.1968 36.1372C-3.53053 22.3038 3.45051 6.50558 17.6023 1.55895C25.4854 -1.19624 33.0631 -0.269639 40.1969 4.09787C41.3307 4.79179 41.3809 5.56566 40.4132 6.47893C40.0165 6.85408 39.6341 7.24563 39.224 7.60643C38.2789 8.43975 37.4813 8.55045 36.367 7.94878C34.6008 6.99348 32.7514 6.26881 30.7904 5.82908C21.4608 3.73707 11.878 8.33315 7.62479 16.9411C1.61555 29.1016 8.77702 43.756 22.0646 46.4876C33.5049 48.84 44.7494 41.2232 46.7443 29.7658C46.9555 28.5532 47.0672 27.3294 47.0693 26.0973L47.0703 26.0984ZM23.4731 24.6777C22.1917 23.2612 20.9677 21.7944 19.4731 20.5798C16.8242 18.4273 13.3449 19.4759 11.5756 20.6495C10.7237 21.2143 10.652 21.9748 11.2599 22.8102C11.6135 23.296 12.0482 23.7071 12.4818 24.1181C15.6679 27.1367 18.4552 30.4874 20.8744 34.1477C21.674 35.3572 22.3168 36.6661 23.2066 37.8171C23.9959 38.8391 25.0303 39.2685 26.3086 39.0892C27.1564 38.9703 27.9775 38.7427 28.7801 38.4496C29.7858 38.0826 30.6264 37.4861 31.2384 36.6035C31.8596 35.7067 32.4593 34.7934 33.0539 33.8781C38.4829 25.5264 44.4316 17.5971 51.7223 10.747C52.6726 9.85424 52.6039 8.92867 51.5049 8.19785C49.9703 7.17593 48.2656 6.78438 46.4327 7.11648C44.6428 7.44038 43.2394 8.45922 42.0072 9.72509C37.877 13.9645 34.163 18.5503 30.7145 23.3545C29.4024 25.1831 28.1364 27.0455 26.8119 28.9468C25.7448 27.4462 24.6766 26.0082 23.4731 24.6777Z" fill="url(#paint0_linear_1604_57)"/>
</g>
<defs>
<linearGradient id="paint0_linear_1604_57" x1="0.192383" y1="26.2125" x2="52.3858" y2="26.2125" gradientUnits="userSpaceOnUse">
<stop stop-color="#F75609"/>
<stop offset="1" stop-color="#FF9E44"/>
</linearGradient>
<clipPath id="clip0_1604_57">
<rect width="52.1928" height="52.1928" fill="white" transform="translate(0.192383)"/>
</clipPath>
</defs>
</svg>
