<svg width="34" height="62" viewBox="0 0 34 62" fill="none" xmlns="http://www.w3.org/2000/svg">
<path d="M30.9 3C26.5 1 21.7 0 16.9 0C12.1 0 7.3 1 2.9 3C1.1 3.8 0 5.6 0 7.5V49.4C0 51.3 1.1 53.1 2.9 53.9C3.2 54 3.6 54.2 3.9 54.3C3.9 54.4 3.8 54.5 3.8 54.7V57.1C3.8 58.1 4.4 59 5.2 59.4C10 61.8 14.5 61.8 16.7 61.8C16.7 61.8 16.7 61.8 16.8 61.8C22.9 61.8 26.9 60.1 28.4 59.4C29.3 59 29.8 58.1 29.8 57.1V54.7C29.8 54.6 29.8 54.5 29.7 54.3C30 54.2 30.4 54 30.7 53.9C32.5 53.1 33.6 51.3 33.6 49.4V7.5C33.8 5.6 32.6 3.8 30.9 3ZM26.9 56.9C25.4 57.6 22 58.9 16.8 58.9C14.7 58.9 11 58.9 6.8 56.9V55.4C10.1 56.4 13.5 56.9 16.8 56.9C20.2 56.9 23.6 56.4 26.8 55.4V56.9H26.9ZM30.8 49.5C30.8 50.3 30.4 51 29.7 51.3C25.7 53.1 21.3 54 16.9 54C12.5 54 8.1 53.1 4.1 51.3C3.4 51 3 50.3 3 49.5V7.5C3 6.7 3.4 6 4.1 5.7C8.1 3.9 12.5 3 16.9 3C21.3 3 25.7 3.9 29.7 5.7C30.4 6 30.8 6.7 30.8 7.5V49.5Z" fill="url(#paint0_linear_1664_194)"/>
<path d="M16.9 13.5C14 13.5 11.6 15.9 11.6 18.8C11.6 21.7 14 24.1 16.9 24.1C19.8 24.1 22.2 21.7 22.2 18.8C22.2 15.9 19.8 13.5 16.9 13.5ZM16.9 21.2C15.6 21.2 14.6 20.1 14.6 18.9C14.6 17.7 15.7 16.6 16.9 16.6C18.1 16.6 19.2 17.7 19.2 18.9C19.2 20.1 18.2 21.2 16.9 21.2Z" fill="url(#paint1_linear_1664_194)"/>
<defs>
<linearGradient id="paint0_linear_1664_194" x1="0" y1="31.0373" x2="33.6218" y2="31.0373" gradientUnits="userSpaceOnUse">
<stop stop-color="#F75609"/>
<stop offset="1" stop-color="#FF9E44"/>
</linearGradient>
<linearGradient id="paint1_linear_1664_194" x1="0" y1="31.0373" x2="33.6218" y2="31.0373" gradientUnits="userSpaceOnUse">
<stop stop-color="#F75609"/>
<stop offset="1" stop-color="#FF9E44"/>
</linearGradient>
</defs>
</svg>
