<svg width="65" height="51" viewBox="0 0 65 51" fill="none" xmlns="http://www.w3.org/2000/svg">
<path d="M29.1 30.9001L27.96 32.3201C26.93 33.6001 23.56 37.9801 23.56 40.6001C23.56 42.5601 24.55 44.3501 26.21 45.3901C27.11 45.9601 28.15 46.2601 29.22 46.2601C30.29 46.2601 31.33 45.9601 32.23 45.3901C33.89 44.3501 34.88 42.5601 34.88 40.6001C34.88 37.9801 31.36 33.5801 30.29 32.3001L29.12 30.9001H29.1ZM30.62 42.8501C29.78 43.3801 28.64 43.3801 27.8 42.8501C27.02 42.3601 26.56 41.5201 26.56 40.6001C26.56 39.7701 27.76 37.6601 29.15 35.7101C30.61 37.6701 31.87 39.7801 31.87 40.6001C31.87 41.5201 31.41 42.3601 30.63 42.8501H30.62Z" fill="url(#paint0_linear_1656_287)"/>
<path d="M40 37.8301L38.86 39.2501C38.05 40.2501 35.41 43.6901 35.41 45.8101C35.41 47.4301 36.23 48.9101 37.6 49.7801C38.35 50.2501 39.21 50.5001 40.09 50.5001C40.97 50.5001 41.84 50.2501 42.58 49.7801C43.95 48.9201 44.77 47.4301 44.77 45.8101C44.77 43.6701 42.01 40.2301 41.17 39.2201L40 37.8301ZM40.99 47.2401C40.46 47.5801 39.74 47.5801 39.2 47.2401C38.71 46.9301 38.41 46.4001 38.41 45.8101C38.41 45.3401 39.11 44.0401 40.05 42.6701C41.03 44.0401 41.76 45.3401 41.77 45.8101C41.77 46.3901 41.48 46.9301 40.98 47.2401H40.99Z" fill="url(#paint1_linear_1656_287)"/>
<path d="M62 0.100088H56.74C55.14 0.100088 53.85 1.40009 53.85 3.00009V3.80009H11.06V3.00009C11.06 1.40009 9.76 0.100088 8.17 0.100088H2.9C1.3 0.100088 0 1.40009 0 3.00009V34.3701C0 35.9701 1.3 37.2601 2.9 37.2601H8.16C9.76 37.2601 11.05 35.9601 11.05 34.3701V33.5701H22.94L29.52 28.6101L29.24 24.9801L33.7 22.0201L32.56 26.8401L36.6 28.9801L38.52 33.5701H53.83V34.3701C53.83 35.9701 55.13 37.2601 56.72 37.2601H61.98C63.58 37.2601 64.88 35.9601 64.88 34.3701V2.99009C64.88 1.39009 63.58 0.0900879 61.98 0.0900879L62 0.100088ZM8.06 34.2501H3.01V3.10009H8.06V34.2601V34.2501ZM53.84 30.5601H40.52L38.95 26.8201L36.01 25.2701L38.36 15.3301L26.11 23.4501L26.4 27.2001L21.94 30.5601H11.06V6.79009H53.84V30.5601ZM61.89 34.2501H56.84V3.10009H61.89V34.2601V34.2501Z" fill="url(#paint2_linear_1656_287)"/>
<defs>
<linearGradient id="paint0_linear_1656_287" x1="0" y1="25.4071" x2="64.88" y2="25.4071" gradientUnits="userSpaceOnUse">
<stop stop-color="#F75609"/>
<stop offset="1" stop-color="#FF9E44"/>
</linearGradient>
<linearGradient id="paint1_linear_1656_287" x1="0" y1="25.4071" x2="64.88" y2="25.4071" gradientUnits="userSpaceOnUse">
<stop stop-color="#F75609"/>
<stop offset="1" stop-color="#FF9E44"/>
</linearGradient>
<linearGradient id="paint2_linear_1656_287" x1="0" y1="25.4071" x2="64.88" y2="25.4071" gradientUnits="userSpaceOnUse">
<stop stop-color="#F75609"/>
<stop offset="1" stop-color="#FF9E44"/>
</linearGradient>
</defs>
</svg>
