<svg width="44" height="57" viewBox="0 0 44 57" fill="none" xmlns="http://www.w3.org/2000/svg">
<path d="M43.7805 35.22C43.7805 26.38 32.3205 10.53 25.4905 1.86996C24.5405 0.659963 23.1005 -0.0300372 21.5805 -3.72461e-05C20.0405 0.0199628 18.6305 0.729963 17.7105 1.94996C11.1805 10.59 0.230469 26.4 0.230469 35.21C0.230469 42.44 3.75047 49.08 9.68047 53.16V53.19L10.4205 53.66C13.8905 55.84 17.8905 56.99 22.0105 56.99C26.1305 56.99 30.1305 55.84 33.6005 53.66L34.3505 53.19V53.16C40.2805 49.09 43.8005 42.45 43.8005 35.22H43.7805ZM20.7405 53.83C20.6005 53.83 20.4705 53.8 20.3305 53.79C20.0505 53.76 19.7705 53.74 19.4905 53.7C19.3305 53.68 19.1605 53.65 19.0005 53.62C18.7505 53.58 18.5005 53.54 18.2605 53.49C18.0905 53.46 17.9205 53.41 17.7505 53.37C17.5105 53.31 17.2805 53.26 17.0505 53.19C16.8805 53.14 16.7105 53.09 16.5405 53.04C16.3105 52.97 16.0905 52.9 15.8605 52.82C15.6905 52.76 15.5205 52.7 15.3505 52.63C15.1305 52.55 14.9105 52.46 14.6905 52.36C14.5205 52.29 14.3605 52.22 14.2005 52.14C13.9805 52.04 13.7705 51.93 13.5505 51.82C13.3905 51.74 13.2305 51.66 13.0805 51.57C13.0205 51.54 12.9705 51.51 12.9205 51.48C13.4905 48.34 16.6705 42.74 21.6405 36.16C21.6805 36.1 21.7405 36.07 21.8105 36.07C21.8805 36.07 21.9405 36.1 21.9905 36.15C27.1905 42.74 30.5105 48.34 31.1105 51.48C31.0505 51.51 31.0005 51.55 30.9505 51.58C30.8005 51.66 30.6405 51.74 30.4905 51.82C30.2705 51.93 30.0505 52.04 29.8305 52.14C29.6705 52.21 29.5005 52.29 29.3405 52.36C29.1205 52.45 28.9005 52.54 28.6805 52.63C28.5105 52.69 28.3405 52.76 28.1705 52.82C27.9505 52.9 27.7205 52.97 27.4905 53.04C27.3205 53.09 27.1505 53.14 26.9705 53.19C26.7405 53.25 26.5005 53.31 26.2705 53.37C26.1005 53.41 25.9305 53.45 25.7605 53.49C25.5105 53.54 25.2605 53.58 25.0205 53.62C24.8605 53.65 24.7005 53.68 24.5305 53.7C24.2505 53.74 23.9805 53.76 23.7005 53.79C23.5605 53.8 23.4205 53.82 23.2905 53.83C22.8705 53.86 22.4505 53.87 22.0305 53.87C21.6105 53.87 21.1905 53.85 20.7705 53.83H20.7405ZM33.8205 49.65C32.2905 44.71 27.4905 38.11 24.4305 34.23C23.7805 33.41 22.8005 32.95 21.7705 32.96C20.7205 32.97 19.7605 33.46 19.1305 34.29C16.2105 38.16 11.6405 44.72 10.1605 49.64C5.85047 46.12 3.34047 40.88 3.34047 35.22C3.34047 29.56 9.64047 17.81 20.1905 3.83996C20.5305 3.38996 21.0405 3.12996 21.6005 3.12996H21.6205C22.1705 3.12996 22.6805 3.37996 23.0305 3.80996C34.0605 17.8 40.6505 29.54 40.6505 35.22C40.6505 40.9 38.1305 46.13 33.8205 49.65Z" fill="url(#paint0_linear_1656_288)"/>
<defs>
<linearGradient id="paint0_linear_1656_288" x1="0.230469" y1="28.6211" x2="43.8005" y2="28.6211" gradientUnits="userSpaceOnUse">
<stop stop-color="#F75609"/>
<stop offset="1" stop-color="#FF9E44"/>
</linearGradient>
</defs>
</svg>
