<svg width="725" height="666" viewBox="0 0 725 666" fill="none" xmlns="http://www.w3.org/2000/svg">
<path opacity="0.2" d="M795.761 314.438L451.604 19.3613C427.045 -6.45377 385.785 -6.45377 361.226 19.3613L17.3962 314.438C6.2627 325.875 0.0410156 341.233 0.0410156 357.245V871.913C0.0410156 906.224 27.8749 934 62.2578 934H750.9C785.283 934 813.116 906.224 813.116 871.913V357.572C813.116 341.56 806.895 326.202 795.761 314.764V314.438Z" fill="url(#paint0_linear_1632_26)"/>
<path d="M819.091 333.051L480.867 43.0297C456.732 17.6568 416.183 17.6568 392.047 43.0297L54.1458 333.051C43.2043 344.292 37.0898 359.388 37.0898 375.125V880.977C37.0898 914.7 64.4438 942 98.234 942H775.003C808.793 942 836.147 914.7 836.147 880.977V375.446C836.147 359.709 830.032 344.613 819.091 333.372V333.051Z" fill="url(#paint1_linear_1632_26)"/>
<defs>
<linearGradient id="paint0_linear_1632_26" x1="0.0410156" y1="469.076" x2="813.117" y2="469.076" gradientUnits="userSpaceOnUse">
<stop stop-color="#F75609"/>
<stop offset="1" stop-color="#FF9E44"/>
</linearGradient>
<linearGradient id="paint1_linear_1632_26" x1="37.0898" y1="485.04" x2="836.147" y2="485.04" gradientUnits="userSpaceOnUse">
<stop stop-color="#F75609"/>
<stop offset="1" stop-color="#FF9E44"/>
</linearGradient>
</defs>
</svg>
