<svg width="50" height="45" viewBox="0 0 50 45" fill="none" xmlns="http://www.w3.org/2000/svg">
<path d="M5.43039 35.79V43.29C5.43039 44.12 6.11039 44.79 6.93039 44.79C7.75039 44.79 8.43039 44.12 8.43039 43.29V35.82C7.94039 35.91 7.44039 35.96 6.93039 35.96C6.42039 35.95 5.92039 35.9 5.43039 35.79Z" fill="url(#paint0_linear_1656_294)"/>
<path d="M47.9804 0.73999C47.1504 0.73999 46.4804 1.40999 46.4804 2.23999V38.16C46.4804 40.16 44.8504 41.79 42.8504 41.79C40.8504 41.79 39.2204 40.16 39.2204 38.16V7.36999C39.2204 5.59999 38.5304 3.92999 37.2804 2.67999C36.0304 1.42999 34.3604 0.73999 32.5904 0.73999C28.9304 0.73999 25.9604 3.70999 25.9604 7.36999V38.15C25.9604 40.15 24.3304 41.78 22.3304 41.78C20.3304 41.78 18.7004 40.15 18.7004 38.15V36.91C18.7004 36.91 18.7004 36.88 18.7004 36.87V7.36999C18.7004 5.58999 18.0004 3.91999 16.7604 2.68999C15.5204 1.43999 13.8504 0.73999 12.0604 0.73999C8.41039 0.73999 5.43039 3.71999 5.43039 7.36999V16.58L6.04039 15.82L6.81039 14.87L7.59039 15.81L7.70039 15.94L8.43039 16.8V7.36999C8.43039 5.36999 10.0604 3.73999 12.0604 3.73999C13.0404 3.73999 13.9504 4.11999 14.6404 4.81999C15.3204 5.48999 15.7004 6.39999 15.7004 7.36999V38.16C15.7004 41.82 18.6704 44.79 22.3304 44.79C25.9904 44.79 28.9604 41.82 28.9604 38.16V7.36999C28.9604 5.36999 30.5904 3.73999 32.5904 3.73999C33.5604 3.73999 34.4704 4.11999 35.1604 4.79999C35.8504 5.48999 36.2204 6.39999 36.2204 7.36999V38.15C36.2204 41.81 39.1904 44.78 42.8504 44.78C46.5104 44.78 49.4804 41.81 49.4804 38.15V2.23999C49.4804 1.40999 48.8104 0.73999 47.9804 0.73999Z" fill="url(#paint1_linear_1656_294)"/>
<path d="M8.17039 18.04L6.93039 16.59L6.82039 16.45L5.52039 18.07C5.52039 18.07 5.46039 18.14 5.43039 18.18C4.08039 19.87 0.150391 25.08 0.150391 28.15C0.150391 30.51 1.35039 32.66 3.34039 33.92C3.98039 34.32 4.69039 34.61 5.43039 34.78C5.92039 34.89 6.42039 34.95 6.93039 34.96H6.97039C7.46039 34.96 7.95039 34.91 8.43039 34.8C9.19039 34.63 9.92039 34.34 10.5804 33.92C12.5804 32.66 13.7804 30.51 13.7804 28.15C13.7804 25.16 9.97039 20.24 8.43039 18.36C8.34039 18.24 8.25039 18.13 8.17039 18.04ZM8.77039 31.02C8.24039 31.35 7.61039 31.52 6.99039 31.52H6.93039C6.31039 31.51 5.68039 31.35 5.16039 31.02C4.16039 30.39 3.57039 29.32 3.57039 28.15C3.57039 27.22 4.63039 25.23 6.03039 23.16C6.30039 22.75 6.59039 22.33 6.89039 21.92C6.90039 21.95 6.91039 21.96 6.93039 21.98C7.23039 22.38 7.52039 22.79 7.80039 23.19C9.23039 25.24 10.3504 27.25 10.3504 28.15C10.3504 29.32 9.76039 30.39 8.77039 31.02Z" fill="url(#paint2_linear_1656_294)"/>
<defs>
<linearGradient id="paint0_linear_1656_294" x1="0.150391" y1="22.8629" x2="49.4804" y2="22.8629" gradientUnits="userSpaceOnUse">
<stop stop-color="#F75609"/>
<stop offset="1" stop-color="#FF9E44"/>
</linearGradient>
<linearGradient id="paint1_linear_1656_294" x1="0.150391" y1="22.8629" x2="49.4804" y2="22.8629" gradientUnits="userSpaceOnUse">
<stop stop-color="#F75609"/>
<stop offset="1" stop-color="#FF9E44"/>
</linearGradient>
<linearGradient id="paint2_linear_1656_294" x1="0.150391" y1="22.8629" x2="49.4804" y2="22.8629" gradientUnits="userSpaceOnUse">
<stop stop-color="#F75609"/>
<stop offset="1" stop-color="#FF9E44"/>
</linearGradient>
</defs>
</svg>
