<svg width="22" height="22" viewBox="0 0 22 22" fill="none" xmlns="http://www.w3.org/2000/svg">
<path d="M19.7595 11.0008C19.756 10.4815 19.7046 9.96645 19.6182 9.45492C19.5594 9.10755 19.6372 8.80123 19.8804 8.53769C20.1341 8.26291 20.3743 7.97517 20.6301 7.70212C20.9741 7.33488 21.3418 7.40746 21.522 7.88573C21.6486 8.2223 21.7173 8.57744 21.7851 8.93041C22.8066 14.2191 19.8204 19.4861 14.7528 21.3357C9.2431 23.3464 3.08616 20.6444 0.844878 15.2322C-1.56924 9.40134 1.37333 2.74226 7.33842 0.657213C10.6612 -0.50412 13.8553 -0.113552 16.8623 1.72739C17.3402 2.01988 17.3613 2.34607 16.9534 2.73102C16.7862 2.88915 16.625 3.05419 16.4522 3.20627C16.0538 3.55752 15.7176 3.60418 15.2479 3.35057C14.5034 2.94791 13.7239 2.64245 12.8973 2.45711C8.96483 1.57531 4.9256 3.51259 3.13283 7.14089C0.59988 12.2667 3.6185 18.4436 9.21934 19.595C14.0415 20.5865 18.7812 17.376 19.6221 12.5466C19.7111 12.0355 19.7582 11.5197 19.759 11.0003L19.7595 11.0008ZM9.81304 10.402C9.27292 9.80487 8.75699 9.18662 8.127 8.67465C7.01046 7.76735 5.54393 8.20933 4.79813 8.70402C4.43906 8.94208 4.40881 9.26266 4.66504 9.61477C4.81411 9.81956 4.99732 9.99281 5.1801 10.1661C6.52306 11.4384 7.69793 12.8508 8.71767 14.3936C9.05471 14.9034 9.32563 15.4551 9.70069 15.9403C10.0334 16.3711 10.4694 16.5521 11.0082 16.4765C11.3656 16.4264 11.7117 16.3305 12.05 16.2069C12.4739 16.0522 12.8282 15.8008 13.0862 15.4288C13.348 15.0507 13.6008 14.6658 13.8514 14.28C16.1398 10.7597 18.6472 7.4174 21.7203 4.53005C22.1209 4.15374 22.0919 3.76361 21.6287 3.45556C20.9819 3.02481 20.2633 2.85977 19.4907 2.99975C18.7363 3.13628 18.1447 3.56573 17.6253 4.0993C15.8844 5.88624 14.3189 7.8192 12.8654 9.84419C12.3123 10.615 11.7786 11.4 11.2204 12.2014C10.7706 11.5689 10.3203 10.9627 9.81304 10.402Z" fill="url(#paint0_linear_1665_82)"/>
<defs>
<linearGradient id="paint0_linear_1665_82" x1="0" y1="11.0489" x2="22" y2="11.0489" gradientUnits="userSpaceOnUse">
<stop stop-color="#F75609"/>
<stop offset="1" stop-color="#FF9E44"/>
</linearGradient>
</defs>
</svg>
