<svg width="43" height="63" viewBox="0 0 43 63" fill="none" xmlns="http://www.w3.org/2000/svg">
<path d="M34.2 8.9V1.5C34.2 0.7 33.5 0 32.7 0H10C9.2 0 8.5 0.7 8.5 1.5V9C3.6 10.4 0 14.9 0 20.3V45.1C0 50.4 3.6 55 8.5 56.4V61C8.5 61.8 9.2 62.5 10 62.5H32.7C33.5 62.5 34.2 61.8 34.2 61V56.4C39.1 55 42.7 50.5 42.7 45.1V20.2C42.7 14.8 39.1 10.3 34.2 8.9ZM11.5 8.5V3H31.2V8.5H22.9V7.2H27.1C27.9 7.2 28.6 6.5 28.6 5.7C28.6 4.9 27.9 4.2 27.1 4.2H15.5C14.7 4.2 14 4.9 14 5.7C14 6.5 14.7 7.2 15.5 7.2H19.8V8.4H11.5V8.5ZM31.2 56.8V59.5H11.5V56.8H31.2ZM39.7 45C39.7 49.8 35.8 53.7 31 53.7H11.7C6.9 53.7 3 49.8 3 45V20.2C3 15.4 6.9 11.5 11.7 11.5H30.9C35.7 11.5 39.6 15.4 39.6 20.2V45H39.7Z" fill="url(#paint0_linear_1664_192)"/>
<defs>
<linearGradient id="paint0_linear_1664_192" x1="0" y1="31.3889" x2="42.7" y2="31.3889" gradientUnits="userSpaceOnUse">
<stop stop-color="#F75609"/>
<stop offset="1" stop-color="#FF9E44"/>
</linearGradient>
</defs>
</svg>
