<svg width="63" height="63" viewBox="0 0 63 63" fill="none" xmlns="http://www.w3.org/2000/svg">
<path d="M45.6225 28.3237L39.8475 22.5487C39.1125 21.8138 38.9025 20.79 39.1912 19.8713C40.1625 16.9313 40.6875 13.7812 40.6875 10.5C40.6875 9.05625 41.8688 7.875 43.3125 7.875H52.5C53.9437 7.875 55.125 9.05625 55.125 10.5C55.125 35.1488 35.1488 55.125 10.5 55.125C9.05625 55.125 7.875 53.9437 7.875 52.5V43.3387C7.875 41.895 9.05625 40.7137 10.5 40.7137C13.755 40.7137 16.9313 40.1887 19.8713 39.2175C20.79 38.9025 21.84 39.1388 22.5487 39.8475L28.3237 45.6225C35.7525 41.8162 41.8425 35.7525 45.6225 28.3237Z" fill="white"/>
</svg>
