<svg width="93" height="93" viewBox="0 0 93 93" fill="none" xmlns="http://www.w3.org/2000/svg">
<path d="M92.8442 46.4221C92.8442 72.0603 72.0603 92.8442 46.4221 92.8442C20.7839 92.8442 0 72.0603 0 46.4221C0 20.7839 20.7839 0 46.4221 0C72.0603 0 92.8442 20.7839 92.8442 46.4221Z" fill="url(#paint0_linear_1601_103)"/>
<path d="M47.8129 35.1027C47.4775 34.288 46.5191 33.4734 45.6565 33.4734C45.1294 33.4734 44.6502 33.713 44.3148 34.3839C44.2189 34.7193 44.1231 35.1506 44.1231 35.5819C44.1231 35.9652 44.219 36.3486 44.3627 36.6361C43.596 45.022 43.1168 53.5038 42.0146 61.698C42.2542 62.2731 42.5897 62.896 43.2126 63.0877C43.5481 63.2315 43.8835 63.3273 44.219 63.3273C44.9857 63.3273 45.7524 62.9439 46.2316 62.1772C46.3753 53.0246 47.6212 44.3032 47.8129 35.1027Z" fill="white"/>
<defs>
<linearGradient id="paint0_linear_1601_103" x1="0" y1="46.6284" x2="92.8442" y2="46.6284" gradientUnits="userSpaceOnUse">
<stop stop-color="#F75609"/>
<stop offset="1" stop-color="#FF9E44"/>
</linearGradient>
</defs>
</svg>
