<svg width="94" height="93" viewBox="0 0 94 93" fill="none" xmlns="http://www.w3.org/2000/svg">
<path d="M93.3755 46.4221C93.3755 72.0603 72.5916 92.8442 46.9534 92.8442C21.3151 92.8442 0.53125 72.0603 0.53125 46.4221C0.53125 20.7839 21.3151 0 46.9534 0C72.5916 0 93.3755 20.7839 93.3755 46.4221Z" fill="url(#paint0_linear_1601_110)"/>
<path d="M60.3522 45.8366L60.4002 45.8845C60.4002 45.1657 59.9689 44.4948 59.5376 43.9677C58.723 43.7281 57.9563 43.6323 57.2375 43.6323C54.554 43.6802 52.158 44.7823 49.5224 44.8782C48.9474 40.8529 48.9474 36.5881 48.6599 32.467C48.3723 31.7482 47.7494 31.5086 47.0785 31.4607C46.4556 31.4607 45.7368 31.7482 45.2576 32.2753C45.3055 32.467 45.3055 32.6108 45.3055 32.7545C45.3055 33.5212 44.8263 33.665 44.2033 33.665C43.82 33.665 43.3887 33.6171 43.0053 33.6171C42.622 33.6171 42.2865 33.665 42.047 33.8567C39.3155 38.9841 37.3508 44.4948 34.6673 49.6701C34.5236 49.9577 34.4277 50.2931 34.4277 50.6765C34.4277 51.4432 34.7632 52.162 35.5778 52.4495C36.1049 52.6412 36.632 52.737 37.1592 52.737C39.1239 52.737 41.0406 51.6828 42.7178 50.8202H43.0053C43.9637 50.8202 44.5867 49.8618 45.593 49.8618C45.7847 49.8618 45.9764 49.8618 46.168 49.9097C46.791 51.2994 46.8868 52.8808 46.8868 54.51V56.6185C46.8389 57.6248 46.8868 58.6311 47.0785 59.5416C47.2702 59.9729 47.3181 60.5 47.3181 61.075C47.3181 61.9855 47.1743 62.9918 47.1743 63.8543C47.1743 65.2919 47.5577 66.442 49.5703 66.442C50.6246 66.0107 51.1038 64.9565 51.2475 63.9502C50.0974 59.2061 50.4329 53.8871 49.8099 48.9993C50.4329 48.0409 51.535 48.0888 52.5893 48.0409C53.4997 47.7054 54.6019 47.6096 55.752 47.6096C56.8541 47.6096 57.9563 47.7054 58.9146 47.8492L60.1606 46.6991C60.3043 46.4116 60.3522 46.1241 60.3522 45.8366ZM45.8326 45.4532V45.5011C44.5388 46.6991 42.3345 46.795 40.801 47.993L39.4114 48.2805C40.226 44.0156 43.1012 40.6133 44.9221 36.7798C45.2096 39.4633 45.2096 42.7218 45.8326 45.4532Z" fill="white"/>
<defs>
<linearGradient id="paint0_linear_1601_110" x1="0.53125" y1="46.6284" x2="93.3755" y2="46.6284" gradientUnits="userSpaceOnUse">
<stop stop-color="#F75609"/>
<stop offset="1" stop-color="#FF9E44"/>
</linearGradient>
</defs>
</svg>
