<svg width="94" height="93" viewBox="0 0 94 93" fill="none" xmlns="http://www.w3.org/2000/svg">
<path d="M93.5317 46.4221C93.5317 72.0603 72.7478 92.8442 47.1096 92.8442C21.4714 92.8442 0.6875 72.0603 0.6875 46.4221C0.6875 20.7839 21.4714 0 47.1096 0C72.7478 0 93.5317 20.7839 93.5317 46.4221Z" fill="url(#paint0_linear_1601_106)"/>
<path d="M54.9454 53.3599C54.5141 50.1972 51.016 48.568 48.5721 47.37C49.4347 44.6386 51.2077 42.0988 51.2556 39.0799C51.2556 38.5049 51.2556 37.8819 51.1118 37.259C50.3451 34.4796 47.3741 34.3838 45.074 34.0483C42.8697 35.1026 40.4737 35.5818 38.6048 37.5465C38.4611 37.7861 38.3652 38.1215 38.3652 38.4569C38.3652 38.8403 38.509 39.2716 38.8444 39.5591C39.3236 40.1341 39.8028 40.3258 40.282 40.3258C41.6238 40.3258 43.0134 38.3132 44.4031 37.9298C44.5948 38.0257 44.7865 38.0257 44.9781 38.0257C45.5053 38.0257 45.9845 37.9777 46.4636 37.9777C47.0387 37.9777 47.6137 38.0736 48.045 38.4569V39.032C48.045 41.428 46.9428 43.3927 45.7928 45.3094C44.5469 47.945 41.7675 47.7054 40.2341 49.9576C40.3299 50.5327 40.6175 51.0119 41.1925 51.4911C41.5758 52.0182 41.9592 52.2099 42.3426 52.2099C43.253 52.2099 44.2114 51.0598 45.2657 51.0598C45.7928 50.8681 46.3199 50.7723 46.847 50.7723C48.4284 50.7723 49.8659 51.539 51.0639 52.6411C51.3035 53.1203 51.3994 53.5516 51.3994 53.935C51.3994 55.4205 49.8659 56.5226 49.0034 57.7206C47.0387 59.5895 43.9718 58.679 41.9113 60.2124C41.8634 60.4041 41.8634 60.5958 41.8634 60.7875C41.8634 61.5063 42.103 62.1771 42.8218 62.6084C43.301 62.9439 43.876 63.0397 44.451 63.0397C45.6011 63.0397 46.847 62.5605 47.8533 62.3209C51.1598 60.6916 54.8017 57.2414 54.9454 53.3599Z" fill="white"/>
<defs>
<linearGradient id="paint0_linear_1601_106" x1="0.6875" y1="46.6284" x2="93.5317" y2="46.6284" gradientUnits="userSpaceOnUse">
<stop stop-color="#F75609"/>
<stop offset="1" stop-color="#FF9E44"/>
</linearGradient>
</defs>
</svg>
