<svg width="94" height="93" viewBox="0 0 94 93" fill="none" xmlns="http://www.w3.org/2000/svg">
<path d="M93.688 46.4221C93.688 72.0603 72.9041 92.8442 47.2659 92.8442C21.6276 92.8442 0.84375 72.0603 0.84375 46.4221C0.84375 20.7839 21.6276 0 47.2659 0C72.9041 0 93.688 20.7839 93.688 46.4221Z" fill="url(#paint0_linear_1601_104)"/>
<path d="M58.5338 59.35C58.3422 58.5833 58.2463 57.7686 57.4317 57.2415C56.5691 57.0498 55.7066 57.0019 54.844 57.0019C52.2085 57.0019 49.6208 57.7207 47.0811 58.152C46.4102 58.2478 45.7872 58.6791 45.1164 58.6791C44.8768 58.6791 44.6372 58.6312 44.3976 58.4395C45.6435 56.0915 47.2727 53.9351 48.2311 51.5391C49.3333 48.8077 51.0105 45.3095 51.0105 42.0031C51.0105 40.2301 50.5313 38.505 49.1416 37.0195C48.1832 36.2048 46.9852 35.8694 45.7393 35.8694C43.6788 35.8694 41.5224 36.684 40.1806 37.9778C39.3181 38.7446 37.6888 39.655 37.6888 41.0926V41.1885C38.4076 42.1948 39.0785 42.5781 39.7014 42.5781C41.6182 42.5781 43.2954 38.7925 45.7872 38.7925C45.9789 38.7925 46.2185 38.8404 46.4581 38.8883C47.4165 39.655 47.5123 40.8051 47.5123 42.0031V43.4886C46.6019 48.8556 44.0142 53.5996 40.6598 57.9124C39.8452 59.6375 37.4492 60.0688 37.4492 62.0335C37.8805 62.8481 38.6472 63.6628 39.6056 63.6628C39.7014 63.7107 39.7973 63.7107 39.8931 63.7107C44.7809 62.7044 49.1416 60.5001 54.4128 60.5001H55.4191C55.7066 60.8355 56.042 60.9793 56.3775 60.9793C57.24 60.9793 58.1026 60.1646 58.5338 59.35Z" fill="white"/>
<defs>
<linearGradient id="paint0_linear_1601_104" x1="0.84375" y1="46.6284" x2="93.688" y2="46.6284" gradientUnits="userSpaceOnUse">
<stop stop-color="#F75609"/>
<stop offset="1" stop-color="#FF9E44"/>
</linearGradient>
</defs>
</svg>
