<svg width="51" height="51" viewBox="0 0 51 51" fill="none" xmlns="http://www.w3.org/2000/svg">
<path d="M22.6547 6.99332C19.9577 9.83613 17.5843 13.1906 15.5346 17.0569C13.5928 20.8094 12.2443 24.6756 11.4892 28.6555C11.9207 28.5418 12.6758 28.4849 13.7546 28.4849C16.128 28.4849 18.1237 29.5084 19.7419 31.5552C21.468 33.4883 22.331 35.99 22.331 39.0602C22.331 42.5853 21.3062 45.485 19.2565 47.7592C17.2068 49.9197 14.5098 51 11.1655 51C7.82126 51 5.12427 49.6923 3.07456 47.0769C1.02485 44.4615 0 40.7659 0 35.99C0 29.8495 1.51031 23.4816 4.53094 16.8863C7.55156 10.1773 11.651 4.54849 16.8292 0L22.6547 6.99332ZM42.0999 28.4849C44.5812 28.4849 46.6309 29.5084 48.2491 31.5552C49.9751 33.4883 50.8382 35.99 50.8382 39.0602C50.8382 42.5853 49.8133 45.485 47.7636 47.7592C45.7139 49.9197 43.0169 51 39.6727 51C36.2205 51 33.4696 49.6923 31.4199 47.0769C29.3702 44.4615 28.3453 40.7659 28.3453 35.99C28.3453 29.9632 29.8556 23.5953 32.8763 16.8863C35.8969 10.1773 39.9963 4.54849 45.1745 0L51 6.99332C48.303 9.83613 45.9836 13.1906 44.0418 17.0569C42.0999 20.8094 40.7515 24.6756 39.9963 28.6555C40.4278 28.5418 41.129 28.4849 42.0999 28.4849Z" fill="url(#paint0_linear_1604_80)"/>
<defs>
<linearGradient id="paint0_linear_1604_80" x1="0" y1="25.6133" x2="51" y2="25.6133" gradientUnits="userSpaceOnUse">
<stop stop-color="#F75609"/>
<stop offset="1" stop-color="#FF9E44"/>
</linearGradient>
</defs>
</svg>
