<svg width="67" height="42" viewBox="0 0 67 42" fill="none" xmlns="http://www.w3.org/2000/svg">
<path d="M63.4296 6.95995H61.8396V6.92995C61.8396 3.55995 59.0996 0.819946 55.7296 0.819946C52.3596 0.819946 49.6196 3.55995 49.6196 6.92995V6.95995H46.7396V6.92995C46.7396 3.55995 43.9996 0.819946 40.6296 0.819946C37.2596 0.819946 34.5196 3.55995 34.5196 6.92995V6.95995H31.6396V6.92995C31.6396 3.55995 28.8996 0.819946 25.5296 0.819946C22.1596 0.819946 19.4196 3.55995 19.4196 6.92995V6.95995H16.5396V6.92995C16.5396 3.55995 13.7996 0.819946 10.4296 0.819946C7.05957 0.819946 4.31957 3.55995 4.31957 6.92995V6.95995H2.41957V6.53995H0.0795703V6.95995H0.0595703V14.4099H0.0795703V14.8299H2.41957V14.4099H4.31957V34.9399C4.31957 38.3099 7.05957 41.0499 10.4296 41.0499C13.7996 41.0499 16.5396 38.3099 16.5396 34.9399V34.0499H19.4196V34.9399C19.4196 38.3099 22.1596 41.0499 25.5296 41.0499C28.8996 41.0499 31.6396 38.3099 31.6396 34.9399V34.0499H34.5196V34.9399C34.5196 38.3099 37.2596 41.0499 40.6296 41.0499C43.9996 41.0499 46.7396 38.3099 46.7396 34.9399V34.0499H49.6196V34.9399C49.6196 38.3099 52.3596 41.0499 55.7296 41.0499C59.0996 41.0499 61.8396 38.3099 61.8396 34.9399V14.4099H63.4296C64.9896 14.4099 66.2496 13.1399 66.2496 11.5899V9.78995C66.2496 8.22995 64.9796 6.96995 63.4296 6.96995V6.95995ZM2.95957 11.5299V9.83995H4.33957V11.5299H2.95957ZM13.6796 34.9399C13.6796 36.7199 12.2296 38.1699 10.4496 38.1699C8.66957 38.1699 7.21957 36.7199 7.21957 34.9399V6.91995C7.21957 5.13995 8.66957 3.68995 10.4496 3.68995C12.2296 3.68995 13.6796 5.13995 13.6796 6.91995V34.9399ZM19.4396 9.83995V11.5299H16.5596V9.83995H19.4396ZM16.5596 31.1799V14.4099H19.4396V31.1799H16.5596ZM28.7796 34.9499C28.7796 36.7299 27.3296 38.1799 25.5496 38.1799C23.7696 38.1799 22.3196 36.7299 22.3196 34.9499V6.91995C22.3196 5.13995 23.7696 3.68995 25.5496 3.68995C27.3296 3.68995 28.7796 5.13995 28.7796 6.91995V34.9499ZM34.5396 9.84995V11.5399H31.6596V9.84995H34.5396ZM31.6596 31.1899V14.4099H34.5396V31.1799H31.6596V31.1899ZM43.8796 34.9599C43.8796 36.7399 42.4296 38.1899 40.6496 38.1899C38.8696 38.1899 37.4196 36.7399 37.4196 34.9599V6.91995C37.4196 5.13995 38.8696 3.68995 40.6496 3.68995C42.4296 3.68995 43.8796 5.13995 43.8796 6.91995V34.9599ZM49.6396 9.85995V11.5499H46.7596V9.85995H49.6396ZM46.7596 31.1999V14.4099H49.6396V31.1799H46.7596V31.1999ZM58.9796 34.9699C58.9796 36.7499 57.5296 38.1999 55.7496 38.1999C53.9696 38.1999 52.5196 36.7499 52.5196 34.9699V6.91995C52.5196 5.13995 53.9696 3.68995 55.7496 3.68995C57.5296 3.68995 58.9796 5.13995 58.9796 6.91995V34.9699ZM61.8596 11.5599V9.83995L63.3896 9.80995L63.4496 11.5599H61.8596Z" fill="url(#paint0_linear_1656_293)"/>
<defs>
<linearGradient id="paint0_linear_1656_293" x1="0.0595703" y1="21.0243" x2="66.2496" y2="21.0243" gradientUnits="userSpaceOnUse">
<stop stop-color="#F75609"/>
<stop offset="1" stop-color="#FF9E44"/>
</linearGradient>
</defs>
</svg>
