<svg width="47" height="62" viewBox="0 0 47 62" fill="none" xmlns="http://www.w3.org/2000/svg">
<path d="M44.1 10.2C39.9 9 35.8 7.3 31.9 5.2C29.4 3.8 27.1 2.3 24.8 0.6C23.8 -0.2 22.4 -0.2 21.4 0.6C19.2 2.3 16.8 3.9 14.3 5.2C10.5 7.3 6.4 9 2.1 10.2C0.899999 10.5 0 11.7 0 12.9V29.7C0 37.7 3.1 45.2 8.8 50.9L17.7 59.8C19.1 61.2 21 62 23.1 62C25.1 62 27 61.2 28.5 59.8L37.4 50.9C43.1 45.2 46.2 37.7 46.2 29.7V12.9C46.2 11.7 45.3 10.5 44.1 10.2ZM43.2 29.7C43.2 36.9 40.4 43.7 35.3 48.8L26.4 57.6C25.5 58.5 24.4 58.9 23.1 58.9C21.9 58.9 20.7 58.4 19.8 57.6L11.1 48.7C6 43.7 3.2 36.9 3.2 29.7V13.1C7.6 11.9 11.9 10.1 15.9 7.9C18.4 6.5 20.9 4.9 23.2 3.1C25.5 4.9 28 6.5 30.5 7.9C34.5 10.1 38.8 11.9 43.2 13.1V29.7Z" fill="url(#paint0_linear_1664_193)"/>
<path d="M15.4 32.2C14.7 31.7 13.8 31.8 13.3 32.5C12.8 33.2 12.9 34.1 13.6 34.6L20 39.6C20.3 39.8 20.6 39.9 20.9 39.9C21.3 39.9 21.8 39.7 22 39.4L34.2 24.9C34.7 24.3 34.7 23.3 34 22.8C33.4 22.3 32.4 22.3 31.9 23L20.7 36.3L15.4 32.2Z" fill="url(#paint1_linear_1664_193)"/>
<defs>
<linearGradient id="paint0_linear_1664_193" x1="0" y1="31.1378" x2="46.2" y2="31.1378" gradientUnits="userSpaceOnUse">
<stop stop-color="#F75609"/>
<stop offset="1" stop-color="#FF9E44"/>
</linearGradient>
<linearGradient id="paint1_linear_1664_193" x1="0" y1="31.1378" x2="46.2" y2="31.1378" gradientUnits="userSpaceOnUse">
<stop stop-color="#F75609"/>
<stop offset="1" stop-color="#FF9E44"/>
</linearGradient>
</defs>
</svg>
