<svg width="67" height="67" viewBox="0 0 67 67" fill="none" xmlns="http://www.w3.org/2000/svg">
<path d="M48.5192 30.1221L42.3775 23.9804C41.5958 23.1988 41.3725 22.11 41.6796 21.1329C42.7125 18.0063 43.2708 14.6563 43.2708 11.1667C43.2708 9.63125 44.5271 8.375 46.0625 8.375H55.8333C57.3688 8.375 58.625 9.63125 58.625 11.1667C58.625 37.3804 37.3804 58.625 11.1667 58.625C9.63125 58.625 8.375 57.3688 8.375 55.8333V46.0904C8.375 44.555 9.63125 43.2988 11.1667 43.2988C14.6283 43.2988 18.0063 42.7404 21.1329 41.7075C22.11 41.3725 23.2267 41.6238 23.9804 42.3775L30.1221 48.5192C38.0225 44.4712 44.4992 38.0225 48.5192 30.1221Z" fill="url(#paint0_linear_1683_82)"/>
<defs>
<linearGradient id="paint0_linear_1683_82" x1="8.375" y1="33.6117" x2="58.625" y2="33.6117" gradientUnits="userSpaceOnUse">
<stop stop-color="#F75609"/>
<stop offset="1" stop-color="#FF9E44"/>
</linearGradient>
</defs>
</svg>
